<svg width="400" height="400" viewBox="0 0 400 400" fill="none" xmlns="http://www.w3.org/2000/svg">
<rect x="115.498" y="144.387" width="212.469" height="57.7777" transform="rotate(18 115.498 144.387)" fill="#7E0037"/>
<path d="M219.897 228.193C190.832 290.525 154.327 335.02 138.363 327.576C122.399 320.131 133.02 263.567 162.085 201.235C191.151 138.904 227.655 94.4087 243.619 101.853C259.584 109.297 248.963 165.862 219.897 228.193Z" fill="#B70552"/>
<path d="M219.5 83.4999L225.228 75L244.167 102.492L231.27 132.538L228 130.5L219.5 83.4999Z" fill="#7E0037"/>
<path d="M95 210C83.9543 210 75 201.046 75 190V123H115V190C115 201.046 106.046 210 95 210V210Z" fill="#000D62"/>
<rect x="31" y="172.137" width="160" height="20" transform="rotate(-45 31 172.137)" fill="#001DD8"/>
<rect x="144.137" y="186.279" width="160" height="20" transform="rotate(-135 144.137 186.279)" fill="#001DD8"/>
<ellipse cx="94.8953" cy="122.895" rx="19.8953" ry="19.8954" fill="#000D62"/>
<path d="M306 270C294.954 270 286 261.046 286 250V183H326V250C326 261.046 317.046 270 306 270V270Z" fill="#000D62"/>
<rect x="242" y="232.137" width="160" height="20" transform="rotate(-45 242 232.137)" fill="#001DD8"/>
<rect x="355.137" y="246.279" width="160" height="20" transform="rotate(-135 355.137 246.279)" fill="#001DD8"/>
<ellipse cx="305.895" cy="182.895" rx="19.8953" ry="19.8954" fill="#000D62"/>
<rect x="146.336" y="277.003" width="27.0642" height="26.7883" rx="4" transform="rotate(25 146.336 277.003)" fill="white"/>
</svg>
